<?xml version="1.0" encoding="utf-8"?>
<!-- Generator: Adobe Illustrator 18.0.0, SVG Export Plug-In . SVG Version: 6.00 Build 0)  -->
<!DOCTYPE svg PUBLIC "-//W3C//DTD SVG 1.1//EN" "http://www.w3.org/Graphics/SVG/1.1/DTD/svg11.dtd">
<svg version="1.1" id="Icon_Set" xmlns="http://www.w3.org/2000/svg" xmlns:xlink="http://www.w3.org/1999/xlink" x="0px" y="0px"
	 viewBox="0 0 256 256" style="enable-background:new 0 0 256 256;" xml:space="preserve">
<style type="text/css">
	.st0{fill:#484771;}
	.st1{fill:#F1C48B;}
	.st2{fill:#D5E6F7;}
	.st3{fill:#A0D1F2;}
	.st4{fill:#FD919F;}
	.st5{fill:#E0667D;}
	.st6{fill:#504774;}
	.st7{fill:#7BACF1;}
	.st8{fill:#FFFFFF;}
	.st9{fill:#D4E7F8;}
	.st10{fill:#A3D0F1;}
	.st11{fill:#4C4372;}
	.st12{fill:#7BABF3;}
	.st13{fill:#FD919E;}
	.st14{fill:#D3E6F8;}
	.st15{fill:#E8677D;}
	.st16{fill:#A4CFF2;}
</style>
<g>
	<g>
		<circle class="st1" cx="128" cy="128" r="103.873"/>
	</g>
	<g>
		<path class="st3" d="M63.223,74.527v4.997c0,44.859,16.999,88.052,47.574,120.878L128,218.872l17.203-18.47
			c30.575-32.826,47.574-76.019,47.574-120.878v-4.997L128,37.128L63.223,74.527z"/>
	</g>
	<g>
		<path class="st12" d="M175.443,64.519v15.005c0,44.859-16.999,88.052-47.574,120.878l-8.536,9.164l8.667,9.305l17.203-18.47
			c30.575-32.826,47.574-76.019,47.574-120.878v-4.997L175.443,64.519z"/>
	</g>
	<g>
		<path class="st2" d="M128,55.589L63.719,92.702c2.985,40.076,19.51,78.103,47.078,107.7L128,218.872l17.203-18.47
			c27.568-29.598,44.093-67.624,47.078-107.7L128,55.589z"/>
	</g>
	<g>
		<path class="st3" d="M192.281,92.702l-16.879-9.745c-0.844,43.625-17.74,85.458-47.533,117.445l-8.536,9.164l8.667,9.305
			l17.203-18.47C172.771,170.805,189.296,132.778,192.281,92.702z"/>
	</g>
	<g>
		<path class="st6" d="M128,221.872c-0.833,0-1.628-0.346-2.195-0.955l-17.203-18.47c-31.197-33.495-48.378-77.149-48.378-122.923
			v-4.997c0-1.072,0.572-2.063,1.5-2.598L126.5,34.53c0.928-0.537,2.072-0.537,3,0l64.777,37.399c0.928,0.535,1.5,1.525,1.5,2.598
			v4.997c0,45.773-17.181,89.428-48.378,122.923l-17.203,18.47C129.628,221.526,128.833,221.872,128,221.872z M66.223,76.26v3.265
			c0,44.25,16.609,86.453,46.769,118.833L128,214.471l15.008-16.113c30.16-32.38,46.769-74.583,46.769-118.833V76.26L128,40.592
			L66.223,76.26z"/>
	</g>
	<g>
		<path class="st6" d="M128,221.872c-0.833,0-1.628-0.346-2.195-0.955l-17.203-18.47c-27.838-29.888-44.84-68.783-47.874-109.522
			c-0.085-1.148,0.494-2.245,1.492-2.82L126.5,52.991c0.928-0.537,2.072-0.537,3,0l64.281,37.113
			c0.998,0.575,1.577,1.672,1.492,2.82c-3.034,40.739-20.036,79.635-47.874,109.522l-17.203,18.47
			C129.628,221.526,128.833,221.872,128,221.872z M66.861,94.353c3.308,38.701,19.647,75.57,46.131,104.005L128,214.471
			l15.008-16.113c26.484-28.435,42.824-65.304,46.131-104.005L128,59.053L66.861,94.353z"/>
	</g>
	<g>
		<circle class="st4" cx="128" cy="122" r="40.002"/>
	</g>
	<g>
		<path class="st6" d="M128,165.002c-12.898,0-23.001-18.889-23.001-43.002S115.102,78.998,128,78.998S151.001,97.887,151.001,122
			S140.898,165.002,128,165.002z M128,84.998c-8.21,0-17.001,14.868-17.001,37.002s8.791,37.002,17.001,37.002
			s17.001-14.868,17.001-37.002S136.21,84.998,128,84.998z"/>
	</g>
	<g>
		<path class="st6" d="M128,107.607c-12.777,0-24.756-2.914-32.866-7.994c-1.404-0.879-1.829-2.73-0.95-4.135
			s2.731-1.829,4.135-0.949c7.181,4.498,17.999,7.078,29.68,7.078s22.5-2.58,29.68-7.078c1.405-0.88,3.256-0.455,4.135,0.949
			s0.454,3.256-0.95,4.135C152.756,104.693,140.777,107.607,128,107.607z"/>
	</g>
	<g>
		<path class="st6" d="M159.27,149.929c-0.544,0-1.095-0.147-1.59-0.458c-7.181-4.498-17.999-7.078-29.68-7.078
			s-22.5,2.58-29.68,7.078c-1.404,0.883-3.255,0.455-4.135-0.949c-0.879-1.404-0.454-3.256,0.95-4.135
			c8.109-5.08,20.088-7.994,32.866-7.994s24.756,2.914,32.866,7.994c1.404,0.879,1.829,2.73,0.95,4.135
			C161.246,149.431,160.269,149.929,159.27,149.929z"/>
	</g>
	<g>
		<path class="st6" d="M128,165.002c-23.711,0-43.002-19.291-43.002-43.002S104.289,78.998,128,78.998S171.002,98.289,171.002,122
			S151.711,165.002,128,165.002z M128,84.998c-20.403,0-37.002,16.599-37.002,37.002s16.599,37.002,37.002,37.002
			s37.002-16.599,37.002-37.002S148.403,84.998,128,84.998z"/>
	</g>
	<g>
		<path class="st6" d="M168.002,125H87.998c-1.657,0-3-1.343-3-3s1.343-3,3-3h80.004c1.657,0,3,1.343,3,3S169.659,125,168.002,125z"
			/>
	</g>
	<g>
		<path class="st6" d="M128,165.002c-1.657,0-3-1.343-3-3V81.998c0-1.657,1.343-3,3-3s3,1.343,3,3v80.004
			C131,163.659,129.657,165.002,128,165.002z"/>
	</g>
</g>
</svg>
